PathFileType	4	(X/Y/Z)	Patient4_TMGait_0pt4_01_left_07.trc.trc
DataRate	CameraRate	NumFrames	NumMarkers	Units	OrigDataRate	OrigDataStartFrame	OrigNumFrames
74.866310160428	74.866310160428	4	33	mm	74.866310160428	1	       141
Frame#	Time	Sacral			L.Shoulder			Chest			R.Shoulder			Neck			R.ASIS			L.ASIS			R.Thigh.Superior			R.Thigh.Lateral			R.Thigh.Inferior			R.Patella			L.Thigh.Superior			L.Thigh.Lateral			L.Thigh.Inferior			L.Patella			L.Shank.Superior			L.Shank.Lateral			L.Shank.Inferior			R.Shank.Superior			R.Shank.Lateral			R.Shank.Inferior			R.Heel			R.Midfoot.Superior			R.Midfoot.Lateral			R.Toe			L.Heel			L.Midfoot.Lateral			L.Midfoot.Superior			L.Toe			L.Elbow			L.Wrist			R.Elbow			R.Wrist			
		X1	Y1	Z1	X2	Y2	Z2	X3	Y3	Z3	X4	Y4	Z4	X5	Y5	Z5	X6	Y6	Z6	X7	Y7	Z7	X8	Y8	Z8	X9	Y9	Z9	X10	Y10	Z10	X11	Y11	Z11	X12	Y12	Z12	X13	Y13	Z13	X14	Y14	Z14	X15	Y15	Z15	X16	Y16	Z16	X17	Y17	Z17	X18	Y18	Z18	X19	Y19	Z19	X20	Y20	Z20	X21	Y21	Z21	X22	Y22	Z22	X23	Y23	Z23	X24	Y24	Z24	X25	Y25	Z25	X26	Y26	Z26	X27	Y27	Z27	X28	Y28	Z28	X29	Y29	Z29	X30	Y30	Z30	X31	Y31	Z31	X32	Y32	Z32	X33	Y33	Z33	

1	7.960000000000	817.251127446764	1010.105253001145	555.434232202089	977.265070706555	1433.305456638913	346.641008449944	1094.556881563040	1370.745292368100	499.952979278631	1028.153187542995	1449.645864829267	679.174718084260	975.853489031861	1500.824108555563	500.051409553719	1055.429973798648	943.984233523925	648.474534121997	1014.154552904954	971.360387992059	377.757597713358	1085.092196930255	740.003742858652	615.741107737185	1000.660857216040	633.382093683127	678.826538697433	1071.467780934172	579.295355562662	594.756717721811	1066.172811209088	492.649390750375	599.471442552369	1091.373617963439	778.599342055140	398.308011853303	1031.890142005368	655.013576326141	321.242941021661	1133.669339661523	584.795057047069	372.183533215617	1140.622651689071	496.993001729361	363.173688759042	1075.876641926639	430.891996645478	356.220646657940	935.154527451598	384.034017047014	308.667174783463	929.546653712021	252.541497080871	361.261962588193	1036.494737448052	405.052907316707	606.165933921602	962.841870542755	302.624403570715	668.126494085238	999.495388730511	207.616229790584	601.093842654488	858.498932149088	45.262245948285	569.361663388197	1031.094776440225	96.984340333876	605.279774793465	942.486287040420	37.182139712543	643.692836249466	1150.930971452151	40.675640454214	632.016510829826	741.846035191025	175.523532250950	400.709133031070	800.747057968469	135.521964062887	318.281202869873	905.964164622847	151.943614783813	337.784402554623	991.601753765615	45.925979565345	305.459184951926	947.916055039293	1075.396956096153	248.644557320783	1057.921775325301	837.982950086636	230.797439225102	1074.673343103473	1113.867075813206	821.824959509855	1296.363274143151	992.340545884553	776.961863777200	
2	7.973357142857	815.510350615666	1011.243065977499	557.599159068734	975.617253162705	1434.098541367453	348.674881375702	1094.028574173797	1370.726854010512	500.777724859580	1029.686540655832	1449.734165356910	680.626038310551	975.658248420903	1501.245290481734	502.004845744180	1053.960839100278	943.823137868182	649.052933937707	1011.268594668620	972.327875039992	378.555419499929	1081.360102072955	739.417660804898	616.020254322927	996.304807425480	633.555103914091	679.567264804256	1065.969038011516	578.872877015863	595.123380352244	1059.997422414055	492.725559311923	599.821920519671	1089.249003867406	780.794627448232	398.671007731562	1030.650475451210	656.763055506937	321.682258931329	1133.356318123772	587.636491164714	371.971983626108	1141.818981500369	500.889074440402	363.099456902841	1080.166564183258	433.310633867319	356.044290098471	942.164630343819	379.865041805793	308.968475915620	943.761476916609	248.400337775614	360.561987295315	1030.380933353117	405.121006411446	606.458896831460	956.959227537348	302.638310342870	668.449122428580	993.724457165676	207.721436001673	601.366424119439	852.771635835064	45.255617258012	569.448073195493	1025.422124811534	97.009149062995	605.408184567794	936.774608591441	37.142421503262	643.810726021462	1145.193894136283	40.700488531080	632.068311856965	761.593827482032	161.269456322636	400.665637532132	821.378456210971	125.846037583113	317.205451120939	925.248332297930	147.614321056515	336.234611419087	1015.817003906584	47.500190342845	301.702851496061	940.132876736814	1076.624815293394	251.599979893891	1041.062754254799	836.079016734565	233.009419625421	1084.006069560848	1115.136692108566	821.495996386787	1308.601156135472	1002.029161271368	773.121862088881	
3	7.986714285714	813.780577633421	1012.334557526134	559.720356047679	973.993234050540	1434.842607805458	350.664945172190	1093.508609810630	1370.665688123927	501.569538004158	1031.203865434749	1449.779123447853	682.035741337068	975.479530297148	1501.614883547225	503.936735064765	1052.502655970538	943.623587426689	649.587899481998	1008.409771174562	973.240946749178	379.317015541806	1077.656475677603	738.814724875570	616.247660440863	992.000903040768	633.694506420962	680.280951947234	1060.526590065536	578.433821360454	595.463349002623	1053.890209698911	492.775797438802	600.155134316829	1087.073081266925	782.852033337384	399.020906122001	1029.281314593252	658.398078745655	322.118142253529	1132.809856237158	590.280754052394	371.880791511564	1142.791323381881	504.662392386341	363.115381222410	1084.280659153609	435.670504189345	355.924487592150	949.220223452662	375.581984369307	309.171981450851	958.055005403354	244.250689608617	359.828366264824	1024.334868826270	405.165041244114	606.740395621204	951.135526280211	302.628996320224	668.760396657366	987.988427827746	207.801507235782	601.620174851402	847.077939700433	45.233149261263	569.533340583250	1019.771596342869	97.027276388306	605.523923611874	931.091750572820	37.097325208708	643.919071628320	1139.488979876322	40.727810681894	632.115931987712	781.599738187993	147.032414295048	400.400942535530	842.332450117693	116.170374043244	316.030146501305	944.736667175627	143.301473664751	334.710513556660	1040.224848703445	49.152644435886	298.204625896644	932.348443291101	1077.845123078805	254.484319291134	1024.396924997351	834.280373205294	235.199023405910	1093.198166438792	1116.373211922386	821.115978349894	1320.585554627431	1011.577274114542	769.266488825144	
4	8.000071428571	812.077840890099	1013.336501605099	561.741291246502	972.418690464187	1435.495069554578	352.554819440071	1093.000665428266	1370.528514187811	502.289785014731	1032.676226601761	1449.745655013455	683.353079325219	975.323927212285	1501.893250371589	505.799631258668	1051.068738422420	943.360076381096	650.037015890274	1005.612476342046	974.046358853375	380.002221903783	1074.023676479956	738.186051256115	616.386910390541	987.805709471341	633.776288575178	680.939797511623	1055.208013444601	577.968716753467	595.754385682517	1047.929196182257	492.779576836151	600.456502386986	1084.794143363065	784.634295427576	399.350509410538	1027.679312293295	659.816052874928	322.530723847535	1131.832033201046	592.546906876822	371.996175187618	1143.329537416396	508.185858631311	363.295336132546	1088.038692329243	437.918259313091	355.903869764130	956.316251139730	371.145411642541	309.213850479215	972.406395252558	240.163155942879	359.054655275446	1018.429558498602	405.167640319949	606.999094990510	945.432934466647	302.582622043098	669.052095587333	982.328624531243	207.839006284496	601.840708829828	841.453583746530	45.186430846897	569.615212789804	1014.172952606212	97.034955209278	605.620033335177	925.472161959730	37.045465185497	644.012796083013	1133.851109014700	40.758089954328	632.156544626458	801.965125863851	133.002380179140	399.782344015115	863.759431993197	106.610364866613	314.733448808431	964.494115572448	139.090781733564	333.266469157066	1064.832021927530	50.963752859297	295.244639865901	924.602353404332	1079.050772007862	257.227078177657	1008.157684929897	832.687597937720	237.337719074607	1102.070044726143	1117.537633867960	820.625711362618	1332.023731055385	1020.790429235159	765.384671928142	
